<?xml version="1.0" encoding="iso-8859-1"?>
<!-- Generator: Adobe Illustrator 19.0.0, SVG Export Plug-In . SVG Version: 6.00 Build 0)  -->
<svg version="1.1" id="Capa_1" xmlns="http://www.w3.org/2000/svg" xmlns:xlink="http://www.w3.org/1999/xlink" x="0px" y="0px"
	 viewBox="0 0 512 512" style="enable-background:new 0 0 512 512;" xml:space="preserve">
<polygon style="fill:#FF6499;" points="74.805,246.622 272.656,444.472 281.673,478.127 257.037,502.764 223.382,493.746 
	25.532,295.896 25.288,295.651 "/>
<g>
	
		<rect x="205.572" y="450.733" transform="matrix(-0.7071 0.7071 -0.7071 -0.7071 736.7349 617.8237)" style="fill:#FFEA98;" width="69.679" height="21.524"/>
	<polygon style="fill:#FFEA98;" points="25.288,295.651 16.27,261.997 40.907,237.359 74.561,246.378 74.805,246.622 	"/>
</g>
<polygon style="fill:#C8EDAD;" points="16.27,261.997 8.333,232.376 11.286,229.423 40.907,237.359 "/>
<rect x="7.5" y="90.561" style="fill:#89B5FD;" width="82.83" height="82.83"/>
<rect x="90.33" y="90.561" style="fill:#FFEA98;" width="82.83" height="82.83"/>
<rect x="173.17" y="90.561" style="fill:#89B5FD;" width="82.83" height="82.83"/>
<rect x="256" y="90.561" style="fill:#FFEA98;" width="82.83" height="82.83"/>
<g>
	<rect x="256" y="7.652" style="fill:#89B5FD;" width="82.83" height="82.83"/>
	<rect x="256" y="173.471" style="fill:#89B5FD;" width="82.83" height="82.83"/>
</g>
<rect x="256" y="256.311" style="fill:#FFEA98;" width="82.83" height="82.83"/>
<g>
	<rect x="173.17" y="256.311" style="fill:#89B5FD;" width="82.83" height="82.83"/>
	<rect x="338.83" y="256.311" style="fill:#89B5FD;" width="82.83" height="82.83"/>
</g>
<rect x="421.67" y="256.311" style="fill:#FFEA98;" width="82.83" height="82.83"/>
<rect x="338.83" y="90.561" style="fill:#89B5FD;" width="82.83" height="82.83"/>
<polygon style="fill:#FF0C38;" points="243.382,493.746 45.532,295.896 45.288,295.651 84.756,256.573 74.805,246.622 
	25.288,295.651 25.532,295.896 223.382,493.746 257.037,502.763 261.263,498.537 "/>
<g>
	<polygon style="fill:#FFD944;" points="228.163,478.526 267.436,439.253 257.436,429.253 208.163,478.526 223.383,493.746 
		233.383,483.746 	"/>
	<polygon style="fill:#FFD944;" points="36.27,261.997 56.68,241.587 40.907,237.359 16.27,261.997 25.288,295.651 41.094,280.001 	
		"/>
</g>
<rect x="7.5" y="90.561" style="fill:#2487FF;" width="20" height="82.83"/>
<rect x="90.33" y="90.561" style="fill:#FFD944;" width="20" height="82.83"/>
<rect x="173.17" y="90.561" style="fill:#2487FF;" width="20" height="82.83"/>
<rect x="256" y="90.561" style="fill:#FFD944;" width="20" height="82.83"/>
<g>
	<rect x="256" y="7.652" style="fill:#2487FF;" width="20" height="82.83"/>
	<rect x="256" y="173.471" style="fill:#2487FF;" width="20" height="82.83"/>
</g>
<rect x="256" y="256.311" style="fill:#FFD944;" width="20" height="82.83"/>
<g>
	<rect x="173.17" y="256.311" style="fill:#2487FF;" width="20" height="82.83"/>
	<rect x="338.83" y="256.311" style="fill:#2487FF;" width="20" height="82.83"/>
</g>
<rect x="421.67" y="256.311" style="fill:#FFD944;" width="20" height="82.83"/>
<rect x="338.83" y="90.561" style="fill:#2487FF;" width="20" height="82.83"/>
<g>
	<rect x="351" y="370.311" style="fill:#1D1D1F;" width="137.63" height="15"/>
	<rect x="301" y="370.311" style="fill:#1D1D1F;" width="15" height="15"/>
	<rect x="326" y="370.311" style="fill:#1D1D1F;" width="15" height="15"/>
	<rect x="348.83" y="405.311" style="fill:#1D1D1F;" width="139.8" height="15"/>
	<rect x="351" y="437.131" style="fill:#1D1D1F;" width="137.63" height="15"/>
	<rect x="301" y="437.131" style="fill:#1D1D1F;" width="15" height="15"/>
	<rect x="326" y="437.131" style="fill:#1D1D1F;" width="15" height="15"/>
	<rect x="348.83" y="472.131" style="fill:#1D1D1F;" width="139.8" height="15"/>
	<rect x="282.33" y="225.65" style="fill:#1D1D1F;" width="15" height="15"/>
	<rect x="307.33" y="225.65" style="fill:#1D1D1F;" width="15" height="15"/>
	<rect x="467.75" y="307.651" style="fill:#1D1D1F;" width="15" height="15"/>
	<rect x="442.75" y="307.651" style="fill:#1D1D1F;" width="15" height="15"/>
	<path style="fill:#1D1D1F;" d="M346.333,248.805v-67.91h82.834v-41.002h-15v26.002h-67.834V98.062h67.834v26.832h15V83.062h-82.834
		V0.152H248.5v82.91H139.667v15h26v67.834H97.833V98.062h26.833v-15H0v97.834h248.5v67.91h-82.833v78.028l-85.378-85.378
		l-1.664-1.661l-39.85-10.678l0,0l-29.688-7.955l-9.083,9.082l7.955,29.689l0,0l1.182,4.413l3.3,12.317l0,0l6.197,23.127
		l136.537,136.534l10.606-10.607L36.213,296.149l38.778-38.778l172.436,172.437l-38.777,38.777l-32.262-32.262l-10.606,10.607
		l54.24,54.24l0,0l0,0l0,0l39.854,10.679l30.816-30.816l-10.679-39.854l0,0l0,0l0,0l0,0l-94.541-94.541h269.694v-15h-25.999v-67.833
		H497v67.833h-26.834v15H512v-97.833H346.333V248.805z M82.833,165.896H15V98.062h67.833V165.896z M26.527,241.364l-6.321,6.321
		l-2.314-8.635L26.527,241.364z M43.257,245.846l17.385,4.658l-31.295,31.296l-4.658-17.385L43.257,245.846z M258.034,440.415
		l4.647,4.647l-38.777,38.778l-4.648-4.648L258.034,440.415z M255.393,495.12l-17-4.555l31.013-31.013l4.555,17L255.393,495.12z
		 M263.5,98.062h67.833v67.834H263.5V98.062z M263.5,15.152h67.833v67.833H263.5V15.152z M180.667,165.896V98.062H248.5v67.834
		L180.667,165.896L180.667,165.896z M263.5,180.973h67.833v67.833H263.5V180.973z M248.5,331.639h-67.833v-67.833H248.5V331.639z
		 M331.333,331.639H263.5v-67.833h67.833V331.639z M414.167,331.639h-67.834v-67.833h67.834V331.639z"/>
</g>
<g>
	
		<rect x="79.365" y="300.512" transform="matrix(-0.7071 -0.7071 0.7071 -0.7071 -69.5099 587.2322)" style="fill:#FFFFFF;" width="15" height="15"/>
	
		<rect x="61.683" y="282.835" transform="matrix(0.7071 0.7071 -0.7071 0.7071 225.5608 36.1173)" style="fill:#FFFFFF;" width="15" height="15"/>
	
		<rect x="74.577" y="372.409" transform="matrix(-0.7071 -0.7071 0.7071 -0.7071 2.3696 760.7985)" style="fill:#FFFFFF;" width="168.348" height="15"/>
</g>
<g>
	<rect x="24.692" y="106.981" style="fill:#1D1D1F;" width="25.606" height="15"/>
	<rect x="271.81" y="22.773" style="fill:#1D1D1F;" width="25.606" height="15"/>
	<rect x="188.98" y="272.651" style="fill:#1D1D1F;" width="25.606" height="15"/>
</g>
<g>
</g>
<g>
</g>
<g>
</g>
<g>
</g>
<g>
</g>
<g>
</g>
<g>
</g>
<g>
</g>
<g>
</g>
<g>
</g>
<g>
</g>
<g>
</g>
<g>
</g>
<g>
</g>
<g>
</g>
</svg>
