<?xml version="1.0" encoding="iso-8859-1"?>
<!-- Generator: Adobe Illustrator 21.0.0, SVG Export Plug-In . SVG Version: 6.00 Build 0)  -->
<svg version="1.1" id="Capa_1" xmlns="http://www.w3.org/2000/svg" xmlns:xlink="http://www.w3.org/1999/xlink" x="0px" y="0px"
	 viewBox="0 0 587.697 587.697" style="enable-background:new 0 0 587.697 587.697;" xml:space="preserve">
<g>
	<g>
		<g id="flat_22_">
			<path style="fill:#87CED9;" d="M466.104,0v526.9c0,33.58,27.216,60.796,60.796,60.796l0,0H60.796
				C27.216,587.697,0,560.48,0,526.9l0,0V0H466.104z"/>
			<rect x="40.531" y="81.062" style="fill:#E34B87;" width="385.043" height="141.858"/>
			<rect x="40.531" y="303.981" style="fill:#E34B87;" width="101.327" height="81.062"/>
			<rect x="182.389" y="303.981" style="fill:#E34B87;" width="101.327" height="81.062"/>
			<rect x="324.246" y="303.981" style="fill:#E34B87;" width="101.327" height="81.062"/>
			<polygon style="fill:#D94881;" points="177.322,222.919 425.573,222.919 425.573,81.062 319.18,81.062 			"/>
			<rect x="30.398" y="30.398" style="fill:#5EB3D1;" width="405.308" height="20.265"/>
			<rect x="30.398" y="253.317" style="fill:#5EB3D1;" width="405.308" height="20.265"/>
			<rect x="30.398" y="415.441" style="fill:#5EB3D1;" width="121.592" height="20.265"/>
			<rect x="30.398" y="455.971" style="fill:#5EB3D1;" width="121.592" height="20.265"/>
			<rect x="30.398" y="496.502" style="fill:#5EB3D1;" width="121.592" height="20.265"/>
			<rect x="172.256" y="415.441" style="fill:#5EB3D1;" width="121.592" height="20.265"/>
			<rect x="172.256" y="455.971" style="fill:#5EB3D1;" width="121.592" height="20.265"/>
			<rect x="172.256" y="496.502" style="fill:#5EB3D1;" width="121.592" height="20.265"/>
			<rect x="314.114" y="415.441" style="fill:#5EB3D1;" width="121.592" height="20.265"/>
			<rect x="314.114" y="455.971" style="fill:#5EB3D1;" width="121.592" height="20.265"/>
			<rect x="314.114" y="496.502" style="fill:#5EB3D1;" width="121.592" height="20.265"/>
			<rect x="50.663" y="537.033" style="fill:#5EB3D1;" width="385.043" height="20.265"/>
			<path style="fill:#5EB3D1;" d="M526.9,547.166c11.197,0,20.265-9.069,20.265-20.265V111.46h-40.531V526.9
				C506.635,538.097,515.704,547.166,526.9,547.166z"/>
			<path style="fill:#71C4D1;" d="M547.166,151.99V526.9c0,11.197-9.069,20.265-20.265,20.265c-11.197,0-20.265-9.069-20.265-20.265
				V70.929h-40.531V526.9c0,33.58,27.216,60.796,60.796,60.796s60.796-27.216,60.796-60.796l0,0V151.99H547.166z"/>
		</g>
	</g>
</g>
<g>
</g>
<g>
</g>
<g>
</g>
<g>
</g>
<g>
</g>
<g>
</g>
<g>
</g>
<g>
</g>
<g>
</g>
<g>
</g>
<g>
</g>
<g>
</g>
<g>
</g>
<g>
</g>
<g>
</g>
</svg>
